PathFileType	4	(X/Y/Z)	/home/abdul/Desktop/myosuite/custom_workspace/IK/output/S13_12_1.trc
DataRate	CameraRate	NumFrames	NumMarkers	Units	OrigDataRate	OrigDataStartFrame	OrigNumFrames
200.0	200.0	51	3	mm	200.0	563	1500
Frame#	Time	V_Shoulder			V_Elbow			V_Wrist		
		X1	Y1	Z1	X2	Y2	Z2	X3	Y3	Z3

563	2.81	-80.25454466354148	604.3684652316169	338.9881814228912	-217.17914019969288	480.7693262687841	36.413375704244636	-79.26908828048502	340.4935343527443	210.54898983701287
564	2.815	-80.27418194357735	604.5868084634504	339.0428309506226	-217.0905859707596	480.5634759525804	36.666201803576854	-79.1921460965498	341.37975932073317	211.62545840510393
565	2.82	-80.2934237644867	604.8040581427722	339.09764186408967	-216.9992740888331	480.35467725887304	36.91965477720015	-79.11750760372618	342.2565939726457	212.69235422031625
566	2.825	-80.31227775545001	605.0201854546236	339.15259402108705	-216.90531283361284	480.14315790983676	37.17364149596562	-79.04513781320937	343.12411607759816	213.749658948174
567	2.83	-80.33075171179699	605.2351623069736	339.20766721618946	-216.8088108604387	479.929145336832	37.428067284237	-78.97500245821152	343.98240540200675	214.79734755131187
568	2.835	-80.34885359214758	605.4489613360994	339.2628411905114	-216.70987716047387	479.7128663834418	37.682836054734295	-78.90706816841899	344.8315433987074	215.8353883739312
569	2.84	-80.36659151550613	605.6615559110824	339.3180956413957	-216.6086210204205	479.49454700917363	37.93785045279868	-78.84130263382318	345.67161291038985	216.8637432723371
570	2.845	-80.38397375831079	605.8729201374284	339.37341023202634	-216.505151981452	479.27441199437635	38.19301200956561	-78.77767475716789	346.50269788803564	217.882367790358
571	2.85	-80.4010087514394	606.0830288598191	339.4287646009616	-216.39957979707017	479.0526846469471	38.4482213034768	-78.71615479431127	347.3248831249803	218.8912113782668
572	2.855	-80.41770507717297	606.291857664003	339.484138371582	-216.29201438961843	478.82958651142724	38.70337812950716	-78.65671448186109	348.13825400715405	219.89021765365064
573	2.86	-80.43407146611756	606.4993828778399	339.5395111614489	-216.18256580521017	478.6053370811102	38.95838167543074	-78.59932715150522	348.9428962799801	220.87932470250794
574	2.865	-80.45011679408516	606.7055815715063	339.5948625915712	-216.07134416685852	478.38015351380386	39.21313070440056	-78.54396783052684	349.73889583233824	221.8584654186946
575	2.87	-80.46585007893327	606.910431556877	339.6501722955744	-215.95845962562288	478.15425035191254	39.46752374307042	-78.49061332806394	350.52633849791914	222.82756787968907
576	2.875	-80.48128047736321	607.1139113860937	339.7054199287711	-215.8440223096173	477.9278392475209	39.72145927444393	-78.43924230674655	351.3053098742172	223.7865557565052
577	2.88	-80.49641728167646	607.3160003493372	339.7605851771272	-215.72814227075577	477.7011286931785	39.97483593459619	-78.38983533942033	352.07589515932466	224.73534875544902
578	2.885	-80.51126991648789	607.5166784718152	339.81564776612294	-215.61092942914092	477.4743237590973	40.227552712377914	-78.34237495074346	352.8381790066055	225.6738630892914
579	2.89	-80.52584793539488	607.7159265099846	339.8705874695058	-215.49249351503357	477.2476258374895	40.479509151179755	-78.29684564352297	353.5922453972356	226.60201197531694
580	2.895	-80.5401610176002	607.9137259470214	339.92538411793174	-215.3729440083713	477.0212323947771	40.73060555180769	-78.25323390973767	354.33817753051125	227.51970615760456
581	2.9	-80.55421896448725	608.1100589875573	339.9800176074948	-215.25239007583585	476.7953367324167	40.98074317549673	-78.21152822627654	355.07605773173054	228.4268544508031
582	2.905	-80.56803169614479	608.3049085517006	340.0344679081407	-215.13094050549833	476.5701277570839	41.229824446072826	-78.17171903550337	355.80596737736334	229.32336430258317
583	2.91	-80.58160924783873	608.4982582683596	340.08871507196505	-215.00870363910252	476.3457897609628	41.47775315025887	-78.13379871084061	356.52798683712547	230.2091423718733
584	2.915	-80.59496176642809	608.690092467887	340.1427392413937	-214.88578730207428	476.1225022128817	41.724434635112765	-78.09776150764627	357.24219543248313	231.08409511992937
585	2.92	-80.60809950672186	608.8803961740649	340.1965206572449	-214.76229873137427	475.9004395610347	41.96977600158249	-78.06360349973937	357.948671411011	231.94812941123428
586	2.925	-80.62103282777304	609.0691550954526	340.25003966667185	-214.63834450133788	475.6797710480137	42.21368629316507	-78.0313225020071	358.64749193593514	232.80115312118681
587	2.93	-80.63377218910642	609.2563556161139	340.3032767309858	-214.51403044767122	475.4606605388666	42.45607667866407	-78.00091797960498	359.3387330900946	233.64307574751024
588	2.935	-80.64632814687572	609.441984785749	340.35621243335913	-214.38946158979712	475.2432663628785	42.69686062805286	-77.97239094433584	360.0224698934578	234.4738090222926
589	2.94	-80.65871134994613	609.62603030925	340.4088274864088	-214.26474205176777	475.02774116975195	42.935954080469294	-77.94574383886555	360.69877633323745	235.2932675215656
590	2.945	-80.67093253589753	609.8084805357021	340.4611027396593	-214.13997498198006	474.8142318008388	43.17327560339104	-77.92098040950239	361.36772540555387	236.10136926933188
591	2.95	-80.68300252694401	609.9893244468551	340.51301918688654	-214.01526247195068	474.60287917604603	43.40874654206962	-77.89810556833233	362.0293891675042	236.8980363329651
592	2.955	-80.69493222576449	610.168551645084	340.56455797334365	-213.89070547442367	474.39381819700674	43.642291158335475	-77.87712524556382	362.6838387984078	237.68319540693346
593	2.96	-80.70673261124001	610.346152340865	340.61570040286864	-213.7664037210992	474.1871776670702	43.8738367579255	-77.85804623299344	363.3311446689127	238.4567783818319
594	2.965	-80.71841473409226	610.5221173397872	340.66642794487535	-213.6424556402846	473.9830802286267	44.10331380552909	-77.8408760195554	363.9713764165634	239.21872289575322
595	2.97	-80.729989712418	610.696438029127	340.71672224123046	-213.51895827477955	473.78164231823416	44.330656026797215	-77.82562261996631	364.60460302635585	239.968972865085
596	2.975	-80.74146872711485	610.8691063640041	340.7665651130162	-213.39600720031703	473.582974139971	44.555800496613486	-77.81229439751883	365.23089291473	240.7074789918824
597	2.98	-80.75286301719247	611.0401148531475	340.8159385671818	-213.27369644488613	473.3871796573834	44.77868771298395	-77.80089988211475	365.85031401538316	241.43419924504326
598	2.985	-80.76418387496425	611.2094565442922	340.8648248030859	-213.1521184092693	473.1943566043425	44.99926165596462	-77.79144758465996	366.46293386522433	242.1490993125939
599	2.99	-80.77544264111422	611.3771250092317	340.91320621893186	-213.03136378912677	473.0045965150669	45.21746983111224	-77.78394580896872	367.06881968873574	242.8521530224865
600	2.995	-80.78665069963374	611.5431143285522	340.96106541809775	-212.91152149896124	472.8179847735035	45.43326329701354	-77.77840246234508	367.6680384789567	243.54334272941074
601	3.0	-80.79781947262317	611.70741907607	341.0083852153651	-212.792678598294	472.63460068219456	45.64659667652118	-77.77482486602267	368.26065707326575	244.22265966523048
602	3.005	-80.80896041495328	611.8700343029976	341.0551486430475	-212.67492022037726	472.454517550691	45.857428151401116	-77.77321956665133	368.84674222210344	244.89010425077413
603	3.01	-80.82008500878145	612.030955521863	341.10133895702444	-212.55832950376254	472.27780280349896	46.06571944017438	-77.77359215002127	369.4263606487528	245.5456863668315
604	3.015	-80.83120475791803	612.1901786902071	341.14693964268	-212.4429875270347	472.1045181074753	46.27143575901739	-77.77594705820974	369.99957909828095	246.18942558234255
605	3.02	-80.8423311820382	612.3477001940814	341.1919344207536	-212.32897324701014	471.9347195185078	46.47454576566776	-77.7802874113255	370.5664643737378	246.82135133790274
606	3.025	-80.85347581073519	612.5035168313738	341.2363072531036	-212.21636344068622	471.7684576472432	46.67502148636659	-77.78661483500855	371.12708335771487	247.44150308285447
607	3.03	-80.86465017741057	612.6576257949827	341.2800423483872	-212.10523265121157	471.605777843541	46.87283822595369	-77.79492929482018	371.6815030173801	248.04993036438742
608	3.035	-80.87586581299782	612.8100246558685	341.32312416766297	-211.99565313813315	471.44672039925285	47.06797446131779	-77.80522893863004	372.22979039113306	248.6466928672288
609	3.04	-80.88713423951573	612.960711346002	341.3655374299156	-211.8876948321553	471.29132076884565	47.260411718489976	-77.81750994807209	372.7720125550604	249.23186040266742
610	3.045	-80.89846696344857	613.1096841412372	341.4072671175098	-211.78142529462795	471.1396098072995	47.450134433754506	-77.83176640010225	373.30823656742416	249.80551284582583
611	3.05	-80.90987546894986	613.2569416441299	341.448298481575	-211.6769096819588	470.99161402463443	47.637129799235844	-77.84799013964532	373.838529389473	250.36774002026846
612	3.055	-80.92137121086789	613.4024827667289	341.4886170473257	-211.5742107151217	470.8473558563304	47.82138759350519	-77.86617066426834	374.3629577809446	250.91864152921312
613	3.06	-80.93296560759036	613.5463067133591	341.5282086193204	-211.47338865441066	470.7068539488273	48.0028999978319	-77.88629502176431	374.88158816870964	251.4583265327964
